<?xml version="1.0" encoding="UTF-8" standalone="no"?>
<!DOCTYPE svg PUBLIC "-//W3C//DTD SVG 1.1//EN"
 "http://www.w3.org/Graphics/SVG/1.1/DTD/svg11.dtd">
<!-- Generated by graphviz version 2.36.0 (20140111.2315)
 -->
<!-- Title: d Pages: 1 -->
<svg width="936pt" height="422pt"
 viewBox="0.00 0.00 936.00 422.00" xmlns="http://www.w3.org/2000/svg" xmlns:xlink="http://www.w3.org/1999/xlink">
<g id="graph0" class="graph" transform="scale(1 1) rotate(0) translate(4 418)">
<title>d</title>
<polygon fill="white" stroke="none" points="-4,4 -4,-418 932,-418 932,4 -4,4"/>
<!-- InstalledShell -->
<g id="node1" class="node"><title>InstalledShell</title>
<polygon fill="none" stroke="black" points="345.5,-252 254.5,-252 254.5,-216 345.5,-216 345.5,-252"/>
<text text-anchor="middle" x="300" y="-230.3" font-family="Times,serif" font-size="14.00">InstalledShell</text>
</g>
<!-- ShellFiledir -->
<g id="node14" class="node"><title>ShellFiledir</title>
<ellipse fill="none" stroke="black" cx="474" cy="-261" rx="51.9908" ry="18"/>
<text text-anchor="middle" x="474" y="-257.3" font-family="Times,serif" font-size="14.00">ShellFiledir</text>
</g>
<!-- InstalledShell&#45;&gt;ShellFiledir -->
<g id="edge3" class="edge"><title>InstalledShell&#45;&gt;ShellFiledir</title>
<path fill="none" stroke="black" d="M345.742,-241.023C367.332,-244.413 393.468,-248.515 416.424,-252.119"/>
<polygon fill="black" stroke="black" points="415.959,-255.589 426.381,-253.682 417.045,-248.673 415.959,-255.589"/>
</g>
<!-- IntroducedNorthPacificGyre -->
<g id="node2" class="node"><title>IntroducedNorthPacificGyre</title>
<polygon fill="none" stroke="black" points="385.5,-360 214.5,-360 214.5,-324 385.5,-324 385.5,-360"/>
<text text-anchor="middle" x="300" y="-338.3" font-family="Times,serif" font-size="14.00">IntroducedNorthPacificGyre</text>
</g>
<!-- IntroducedNelleNemo -->
<g id="node3" class="node"><title>IntroducedNelleNemo</title>
<polygon fill="none" stroke="black" points="369,-306 231,-306 231,-270 369,-270 369,-306"/>
<text text-anchor="middle" x="300" y="-284.3" font-family="Times,serif" font-size="14.00">IntroducedNelleNemo</text>
</g>
<!-- IntroducedNelleNemo&#45;&gt;ShellFiledir -->
<g id="edge4" class="edge"><title>IntroducedNelleNemo&#45;&gt;ShellFiledir</title>
<path fill="none" stroke="black" d="M369.473,-277.251C385.001,-274.814 401.325,-272.251 416.302,-269.9"/>
<polygon fill="black" stroke="black" points="417.093,-273.319 426.43,-268.31 416.008,-266.404 417.093,-273.319"/>
</g>
<!-- IntroducedTabCompletion -->
<g id="node4" class="node"><title>IntroducedTabCompletion</title>
<polygon fill="none" stroke="black" points="723.5,-414 562.5,-414 562.5,-378 723.5,-378 723.5,-414"/>
<text text-anchor="middle" x="643" y="-392.3" font-family="Times,serif" font-size="14.00">IntroducedTabCompletion</text>
</g>
<!-- IntroducedTextEdition -->
<g id="node5" class="node"><title>IntroducedTextEdition</title>
<polygon fill="none" stroke="black" points="914,-252 774,-252 774,-216 914,-216 914,-252"/>
<text text-anchor="middle" x="844" y="-230.3" font-family="Times,serif" font-size="14.00">IntroducedTextEdition</text>
</g>
<!-- IntroducedShellHasOption -->
<g id="node6" class="node"><title>IntroducedShellHasOption</title>
<polygon fill="none" stroke="black" points="723.5,-360 562.5,-360 562.5,-324 723.5,-324 723.5,-360"/>
<text text-anchor="middle" x="643" y="-338.3" font-family="Times,serif" font-size="14.00">IntroducedShellHasOption</text>
</g>
<!-- IntroducedCommandLs -->
<g id="node7" class="node"><title>IntroducedCommandLs</title>
<polygon fill="none" stroke="black" points="716,-306 570,-306 570,-270 716,-270 716,-306"/>
<text text-anchor="middle" x="643" y="-284.3" font-family="Times,serif" font-size="14.00">IntroducedCommandLs</text>
</g>
<!-- IntroducedCommandCd -->
<g id="node8" class="node"><title>IntroducedCommandCd</title>
<polygon fill="none" stroke="black" points="717.5,-252 568.5,-252 568.5,-216 717.5,-216 717.5,-252"/>
<text text-anchor="middle" x="643" y="-230.3" font-family="Times,serif" font-size="14.00">IntroducedCommandCd</text>
</g>
<!-- IntroducedCommandPwd -->
<g id="node9" class="node"><title>IntroducedCommandPwd</title>
<polygon fill="none" stroke="black" points="721.5,-198 564.5,-198 564.5,-162 721.5,-162 721.5,-198"/>
<text text-anchor="middle" x="643" y="-176.3" font-family="Times,serif" font-size="14.00">IntroducedCommandPwd</text>
</g>
<!-- IntroducedCommandRm -->
<g id="node10" class="node"><title>IntroducedCommandRm</title>
<polygon fill="none" stroke="black" points="920.5,-198 767.5,-198 767.5,-162 920.5,-162 920.5,-198"/>
<text text-anchor="middle" x="844" y="-176.3" font-family="Times,serif" font-size="14.00">IntroducedCommandRm</text>
</g>
<!-- IntroducedCommandMv -->
<g id="node11" class="node"><title>IntroducedCommandMv</title>
<polygon fill="none" stroke="black" points="920,-144 768,-144 768,-108 920,-108 920,-144"/>
<text text-anchor="middle" x="844" y="-122.3" font-family="Times,serif" font-size="14.00">IntroducedCommandMv</text>
</g>
<!-- IntroducedCommandMkdir -->
<g id="node12" class="node"><title>IntroducedCommandMkdir</title>
<polygon fill="none" stroke="black" points="927.5,-90 760.5,-90 760.5,-54 927.5,-54 927.5,-90"/>
<text text-anchor="middle" x="844" y="-68.3" font-family="Times,serif" font-size="14.00">IntroducedCommandMkdir</text>
</g>
<!-- ShellIntro -->
<g id="node13" class="node"><title>ShellIntro</title>
<ellipse fill="none" stroke="black" cx="89" cy="-301" rx="46.2923" ry="18"/>
<text text-anchor="middle" x="89" y="-297.3" font-family="Times,serif" font-size="14.00">ShellIntro</text>
</g>
<!-- ShellIntro&#45;&gt;IntroducedNorthPacificGyre -->
<g id="edge2" class="edge"><title>ShellIntro&#45;&gt;IntroducedNorthPacificGyre</title>
<path fill="none" stroke="black" d="M130.793,-309.003C151.861,-313.135 178.515,-318.364 204.357,-323.434"/>
<polygon fill="black" stroke="black" points="203.722,-326.876 214.208,-325.366 205.069,-320.007 203.722,-326.876"/>
</g>
<!-- ShellIntro&#45;&gt;IntroducedNelleNemo -->
<g id="edge1" class="edge"><title>ShellIntro&#45;&gt;IntroducedNelleNemo</title>
<path fill="none" stroke="black" d="M134.836,-298.211C159.835,-296.656 191.685,-294.675 220.666,-292.872"/>
<polygon fill="black" stroke="black" points="221.018,-296.357 230.781,-292.243 220.583,-289.371 221.018,-296.357"/>
</g>
<!-- ShellFiledir&#45;&gt;IntroducedTabCompletion -->
<g id="edge8" class="edge"><title>ShellFiledir&#45;&gt;IntroducedTabCompletion</title>
<path fill="none" stroke="black" d="M484.996,-278.946C499.157,-302.801 527.245,-344.756 562,-369 564.104,-370.468 566.294,-371.861 568.549,-373.183"/>
<polygon fill="black" stroke="black" points="567.045,-376.347 577.52,-377.936 570.322,-370.161 567.045,-376.347"/>
</g>
<!-- ShellFiledir&#45;&gt;IntroducedShellHasOption -->
<g id="edge9" class="edge"><title>ShellFiledir&#45;&gt;IntroducedShellHasOption</title>
<path fill="none" stroke="black" d="M497.808,-277.185C514.896,-288.799 539.166,-304.236 562,-315 565.804,-316.793 569.76,-318.523 573.786,-320.182"/>
<polygon fill="black" stroke="black" points="572.682,-323.509 583.269,-323.92 575.249,-316.997 572.682,-323.509"/>
</g>
<!-- ShellFiledir&#45;&gt;IntroducedCommandLs -->
<g id="edge6" class="edge"><title>ShellFiledir&#45;&gt;IntroducedCommandLs</title>
<path fill="none" stroke="black" d="M521.519,-268.521C533.44,-270.448 546.62,-272.579 559.76,-274.704"/>
<polygon fill="black" stroke="black" points="559.347,-278.182 569.778,-276.323 560.464,-271.272 559.347,-278.182"/>
</g>
<!-- ShellFiledir&#45;&gt;IntroducedCommandCd -->
<g id="edge7" class="edge"><title>ShellFiledir&#45;&gt;IntroducedCommandCd</title>
<path fill="none" stroke="black" d="M521.519,-253.479C532.942,-251.632 545.522,-249.598 558.114,-247.562"/>
<polygon fill="black" stroke="black" points="558.88,-250.984 568.193,-245.933 557.763,-244.074 558.88,-250.984"/>
</g>
<!-- ShellFiledir&#45;&gt;IntroducedCommandPwd -->
<g id="edge5" class="edge"><title>ShellFiledir&#45;&gt;IntroducedCommandPwd</title>
<path fill="none" stroke="black" d="M497.808,-244.815C514.896,-233.201 539.166,-217.764 562,-207 565.804,-205.207 569.76,-203.477 573.786,-201.818"/>
<polygon fill="black" stroke="black" points="575.249,-205.003 583.269,-198.08 572.682,-198.491 575.249,-205.003"/>
</g>
<!-- ShellCreate -->
<g id="node15" class="node"><title>ShellCreate</title>
<ellipse fill="none" stroke="black" cx="643" cy="-126" rx="51.9908" ry="18"/>
<text text-anchor="middle" x="643" y="-122.3" font-family="Times,serif" font-size="14.00">ShellCreate</text>
</g>
<!-- ShellFiledir&#45;&gt;ShellCreate -->
<g id="edge10" class="edge"><title>ShellFiledir&#45;&gt;ShellCreate</title>
<path fill="none" stroke="black" d="M484.996,-243.054C499.157,-219.199 527.245,-177.244 562,-153 570.205,-147.276 579.722,-142.685 589.267,-139.03"/>
<polygon fill="black" stroke="black" points="590.506,-142.304 598.774,-135.679 588.179,-135.702 590.506,-142.304"/>
</g>
<!-- ShellCreate&#45;&gt;IntroducedTextEdition -->
<g id="edge11" class="edge"><title>ShellCreate&#45;&gt;IntroducedTextEdition</title>
<path fill="none" stroke="black" d="M688.083,-135.209C700.535,-139.252 713.531,-144.972 724,-153 746.89,-170.551 737.014,-189.575 760,-207 761.815,-208.376 763.703,-209.683 765.649,-210.926"/>
<polygon fill="black" stroke="black" points="764.087,-214.063 774.509,-215.965 767.548,-207.979 764.087,-214.063"/>
</g>
<!-- ShellCreate&#45;&gt;IntroducedCommandRm -->
<g id="edge12" class="edge"><title>ShellCreate&#45;&gt;IntroducedCommandRm</title>
<path fill="none" stroke="black" d="M684.751,-137.058C708.349,-143.462 738.817,-151.729 766.708,-159.298"/>
<polygon fill="black" stroke="black" points="765.883,-162.7 776.451,-161.941 767.716,-155.945 765.883,-162.7"/>
</g>
<!-- ShellCreate&#45;&gt;IntroducedCommandMv -->
<g id="edge13" class="edge"><title>ShellCreate&#45;&gt;IntroducedCommandMv</title>
<path fill="none" stroke="black" d="M695.247,-126C714.335,-126 736.549,-126 757.865,-126"/>
<polygon fill="black" stroke="black" points="757.908,-129.5 767.908,-126 757.908,-122.5 757.908,-129.5"/>
</g>
<!-- ShellCreate&#45;&gt;IntroducedCommandMkdir -->
<g id="edge14" class="edge"><title>ShellCreate&#45;&gt;IntroducedCommandMkdir</title>
<path fill="none" stroke="black" d="M684.751,-114.942C708.349,-108.538 738.817,-100.271 766.708,-92.7023"/>
<polygon fill="black" stroke="black" points="767.716,-96.0554 776.451,-90.0586 765.883,-89.2997 767.716,-96.0554"/>
</g>
<!-- ShellPipefilter -->
<g id="node16" class="node"><title>ShellPipefilter</title>
<ellipse fill="none" stroke="black" cx="844" cy="-18" rx="61.99" ry="18"/>
<text text-anchor="middle" x="844" y="-14.3" font-family="Times,serif" font-size="14.00">ShellPipefilter</text>
</g>
<!-- ShellCreate&#45;&gt;ShellPipefilter -->
<g id="edge15" class="edge"><title>ShellCreate&#45;&gt;ShellPipefilter</title>
<path fill="none" stroke="black" d="M663.8,-109.42C686.019,-91.4932 723.721,-63.0665 760,-45 768.851,-40.5925 778.582,-36.6778 788.169,-33.2909"/>
<polygon fill="black" stroke="black" points="789.317,-36.5975 797.671,-30.0813 787.077,-29.9656 789.317,-36.5975"/>
</g>
<!-- InstallingAnaconda27 -->
<g id="node17" class="node"><title>InstallingAnaconda27</title>
<ellipse fill="none" stroke="black" cx="89" cy="-220" rx="88.2844" ry="18"/>
<text text-anchor="middle" x="89" y="-216.3" font-family="Times,serif" font-size="14.00">InstallingAnaconda27</text>
</g>
<!-- InstallingAnaconda27&#45;&gt;InstalledShell -->
<g id="edge16" class="edge"><title>InstallingAnaconda27&#45;&gt;InstalledShell</title>
<path fill="none" stroke="black" d="M173.203,-225.573C197.083,-227.173 222.512,-228.876 244.213,-230.33"/>
<polygon fill="black" stroke="black" points="244.01,-233.824 254.221,-231 244.478,-226.84 244.01,-233.824"/>
</g>
<!-- InstalledPython27 -->
<g id="node18" class="node"><title>InstalledPython27</title>
<ellipse fill="none" stroke="black" cx="300" cy="-180" rx="74.9875" ry="18"/>
<text text-anchor="middle" x="300" y="-176.3" font-family="Times,serif" font-size="14.00">InstalledPython27</text>
</g>
<!-- InstallingAnaconda27&#45;&gt;InstalledPython27 -->
<g id="edge17" class="edge"><title>InstallingAnaconda27&#45;&gt;InstalledPython27</title>
<path fill="none" stroke="black" d="M154.127,-207.727C178.489,-203.064 206.31,-197.74 231.017,-193.011"/>
<polygon fill="black" stroke="black" points="231.87,-196.411 241.034,-191.094 230.554,-189.536 231.87,-196.411"/>
</g>
</g>
</svg>
